<?xml version="1.0" encoding="UTF-8"?>
<svg version="1.1" xmlns="http://www.w3.org/2000/svg" width="180" height="180">
<path d="M0 0 C1.11521027 -0.00953201 2.23042053 -0.01906403 3.37942505 -0.02888489 C4.59081146 -0.02797348 5.80219788 -0.02706207 7.05029297 -0.02612305 C8.29366425 -0.03040817 9.53703552 -0.0346933 10.81808472 -0.03910828 C13.45617695 -0.04486289 16.09387952 -0.0462752 18.73193359 -0.04101562 C21.42839271 -0.03639354 24.1244001 -0.04325636 26.82080078 -0.06152344 C30.70993742 -0.08609896 34.59858813 -0.09017518 38.48779297 -0.08862305 C39.687034 -0.09783279 40.88627502 -0.10704254 42.12185669 -0.11653137 C48.69466702 -0.08043242 53.68670073 0.49297502 59.66748047 3.2746582 C59.66748047 3.9346582 59.66748047 4.5946582 59.66748047 5.2746582 C60.98748047 5.6046582 62.30748047 5.9346582 63.66748047 6.2746582 C63.66748047 6.9346582 63.66748047 7.5946582 63.66748047 8.2746582 C64.28623047 8.5840332 64.90498047 8.8934082 65.54248047 9.2121582 C66.91748047 9.8996582 68.29248047 10.5871582 69.66748047 11.2746582 C69.66748047 11.9346582 69.66748047 12.5946582 69.66748047 13.2746582 C70.98748047 13.9346582 72.30748047 14.5946582 73.66748047 15.2746582 C73.66748047 15.9346582 73.66748047 16.5946582 73.66748047 17.2746582 C74.30685547 17.5427832 74.94623047 17.8109082 75.60498047 18.0871582 C77.66748047 19.2746582 77.66748047 19.2746582 78.66748047 22.2746582 C79.32748047 22.2746582 79.98748047 22.2746582 80.66748047 22.2746582 C82.15808805 24.81019675 83.63496109 27.35221946 85.10498047 29.8996582 C85.52585937 30.61250977 85.94673828 31.32536133 86.38037109 32.05981445 C92.52499546 42.77603934 92.28576635 58.11709125 89.44091797 70.0324707 C88.22764306 73.5497424 86.57640072 76.79075009 84.78857422 80.0480957 C83.73625103 82.13807556 83.13155991 83.99076161 82.66748047 86.2746582 C82.00748047 86.2746582 81.34748047 86.2746582 80.66748047 86.2746582 C80.20341797 87.4502832 80.20341797 87.4502832 79.72998047 88.6496582 C78.66748047 91.2746582 78.66748047 91.2746582 77.66748047 93.2746582 C77.00748047 93.2746582 76.34748047 93.2746582 75.66748047 93.2746582 C75.55275391 93.85731445 75.43802734 94.4399707 75.31982422 95.0402832 C73.0209926 102.91412564 65.27944685 108.99565759 58.66748047 113.2746582 C57.67748047 113.2746582 56.68748047 113.2746582 55.66748047 113.2746582 C55.55020774 109.12906728 55.47987114 104.98390958 55.41748047 100.8371582 C55.38396484 99.67249023 55.35044922 98.50782227 55.31591797 97.30786133 C55.23260521 89.9138544 56.10789903 84.73942496 59.66748047 78.2746582 C66.35445137 63.15793646 69.75517723 52.12564221 63.66748047 36.2746582 C63.00748047 36.2746582 62.34748047 36.2746582 61.66748047 36.2746582 C61.07966797 34.9134082 61.07966797 34.9134082 60.47998047 33.5246582 C58.5550541 30.0730661 56.94370505 28.43217195 53.66748047 26.2746582 C41.03905522 23.11755189 27.67925342 24.64642314 14.66748047 24.2746582 C14.66748047 53.6446582 14.66748047 83.0146582 14.66748047 113.2746582 C10.57779532 112.25223692 9.94549964 111.92562055 7.41748047 108.8996582 C6.89669922 108.29379883 6.37591797 107.68793945 5.83935547 107.0637207 C4.66748047 105.2746582 4.66748047 105.2746582 4.66748047 102.2746582 C4.00748047 102.2746582 3.34748047 102.2746582 2.66748047 102.2746582 C2.39935547 101.6765332 2.13123047 101.0784082 1.85498047 100.4621582 C0.80412099 98.27586827 0.80412099 98.27586827 -0.74267578 96.8762207 C-2.42686782 95.17961447 -3.66553984 93.47146405 -4.95751953 91.4621582 C-5.38291016 90.81633789 -5.80830078 90.17051758 -6.24658203 89.50512695 C-8.9889143 83.87249486 -8.39542462 77.62935191 -8.21142578 71.5324707 C-8.18786011 70.58320206 -8.16429443 69.63393341 -8.14001465 68.65589905 C-8.06309263 65.57034427 -7.97902202 62.48502756 -7.89501953 59.3996582 C-7.78603555 55.14846515 -7.68239354 50.8971685 -7.58251953 46.64575195 C-7.55771011 45.59069962 -7.5329007 44.53564728 -7.50733948 43.44862366 C-7.36552225 37.00506669 -7.2983806 30.56731301 -7.33251953 24.12231445 C-7.33630112 23.36815247 -7.3400827 22.61399048 -7.34397888 21.8369751 C-7.36551772 18.37260803 -7.40299127 14.90906159 -7.45776367 11.44506836 C-7.46928467 10.2480127 -7.48080566 9.05095703 -7.49267578 7.81762695 C-7.50951416 6.78661865 -7.52635254 5.75561035 -7.54370117 4.69335938 C-7.11406645 -0.2273241 -4.19234827 0.01962931 0 0 Z " fill="#010101" transform="translate(54.33251953125,22.725341796875)"/>
<path d="M0 0 C1.24136719 -0.03738281 2.48273438 -0.07476562 3.76171875 -0.11328125 C12.92218133 -0.20202631 12.92218133 -0.20202631 16.921875 2.5859375 C17.82679687 3.96652344 17.82679687 3.96652344 18.75 5.375 C19.62591797 6.57189453 19.62591797 6.57189453 20.51953125 7.79296875 C22.73637241 12.44481639 22.47007988 17.28045386 22.75 22.375 C17.47 22.375 12.19 22.375 6.75 22.375 C6.79713135 25.67467773 6.79713135 25.67467773 6.84521484 29.04101562 C6.9448686 36.32906883 7.01100142 43.61715304 7.06087303 50.90570831 C7.09211587 55.32259822 7.13445768 59.738787 7.20263672 64.15527344 C7.26808393 68.42175635 7.303759 72.68756719 7.31926346 76.95451355 C7.33030467 78.57800368 7.35186622 80.20145919 7.38438034 81.82466125 C7.68026626 97.21570172 7.68026626 97.21570172 2.23721313 102.92858887 C1.7464328 103.40590454 1.25565247 103.88322021 0.75 104.375 C0.09 105.365 -0.57 106.355 -1.25 107.375 C-2.735 107.87 -2.735 107.87 -4.25 108.375 C-4.25 107.715 -4.25 107.055 -4.25 106.375 C-5.2090625 105.9728125 -5.2090625 105.9728125 -6.1875 105.5625 C-8.25 104.375 -8.25 104.375 -9.25 101.375 C-9.91 101.375 -10.57 101.375 -11.25 101.375 C-11.58 100.385 -11.91 99.395 -12.25 98.375 C-12.91 98.045 -13.57 97.715 -14.25 97.375 C-14.27312143 84.875429 -14.29091406 72.37586305 -14.30181217 59.87627506 C-14.30704144 54.07286387 -14.31413987 48.26946725 -14.32543945 42.46606445 C-14.33626678 36.87049147 -14.3422765 31.27493255 -14.34487724 25.6793499 C-14.34673177 23.53941056 -14.35035291 21.39947204 -14.35573006 19.25953865 C-14.36293844 16.27335034 -14.36399103 13.28722093 -14.36352539 10.30102539 C-14.36712067 9.40694977 -14.37071594 8.51287415 -14.37442017 7.59170532 C-14.35727209 -2.50172757 -8.80601664 0.09934993 0 0 Z " fill="#010101" transform="translate(92.25,56.625)"/>
<path d="M0 0 C10.23 0 20.46 0 31 0 C31 7.59 31 15.18 31 23 C27.9475 22.979375 24.895 22.95875 21.75 22.9375 C20.79448242 22.949021 19.83896484 22.96054199 18.85449219 22.97241211 C16.41086487 22.89821395 14.33889995 22.72898302 12 22 C10.04010664 19.91458421 9.12078474 17.60335066 8 15 C6.22655971 12.70517561 4.37497348 10.51040802 2.48828125 8.30859375 C1 6 1 6 0 0 Z " fill="#010101" transform="translate(11,57)"/>
<path d="M0 0 C4.95 0 9.9 0 15 0 C15.33 0.99 15.66 1.98 16 3 C14.453125 5.8828125 14.453125 5.8828125 12.25 9.125 C11.53328125 10.20007813 10.8165625 11.27515625 10.078125 12.3828125 C8 15 8 15 5 16 C4.67 16.99 4.34 17.98 4 19 C3.34 19 2.68 19 2 19 C1.46678738 16.77376199 0.94889881 14.54384996 0.4375 12.3125 C0.14746094 11.07113281 -0.14257812 9.82976562 -0.44140625 8.55078125 C-1 5 -1 5 0 0 Z " fill="#010101" transform="translate(150,57)"/>
</svg>
